<svg xmlns="http://www.w3.org/2000/svg" version="1.1" xmlns:xlink="http://www.w3.org/1999/xlink" viewBox="0 0 200 200"><rect width="200" height="200" fill="url('#gradient')"></rect><defs><linearGradient id="gradient" gradientTransform="rotate(139 0.5 0.5)"><stop offset="0%" stop-color="#c8512e"></stop><stop offset="100%" stop-color="#8fa983"></stop></linearGradient></defs><g><g fill="#445272" transform="matrix(3.4289193302891934,0,0,3.4289193302891934,9.85464868890277,125.39337355470005)" stroke="#c8512e" stroke-width="0.2"><path d="M8.41-3.78L8.41-3.78Q8.41-4.53 7.88-4.95Q7.34-5.37 6.01-5.82Q4.67-6.27 3.82-6.69L3.82-6.69Q1.05-8.05 1.05-10.42L1.05-10.42Q1.05-11.60 1.74-12.50Q2.43-13.41 3.69-13.91Q4.95-14.41 6.52-14.41L6.52-14.41Q8.06-14.41 9.27-13.87Q10.49-13.32 11.16-12.31Q11.84-11.30 11.84-10L11.84-10L8.42-10Q8.42-10.87 7.89-11.35Q7.35-11.83 6.45-11.83L6.45-11.83Q5.53-11.83 5.00-11.42Q4.46-11.02 4.46-10.39L4.46-10.39Q4.46-9.84 5.05-9.40Q5.63-8.96 7.11-8.48Q8.58-8.01 9.53-7.46L9.53-7.46Q11.84-6.13 11.84-3.80L11.84-3.80Q11.84-1.93 10.43-0.87Q9.02 0.20 6.57 0.20L6.57 0.20Q4.84 0.20 3.44-0.42Q2.04-1.04 1.33-2.12Q0.63-3.20 0.63-4.61L0.63-4.61L4.06-4.61Q4.06-3.47 4.65-2.92Q5.24-2.38 6.57-2.38L6.57-2.38Q7.42-2.38 7.92-2.75Q8.41-3.12 8.41-3.78ZM13.98-13.19L17.28-13.19L17.28-10.57L19.01-10.57L19.01-8.28L17.28-8.28L17.28-3.45Q17.28-2.85 17.49-2.62Q17.71-2.38 18.34-2.38L18.34-2.38Q18.83-2.38 19.16-2.44L19.16-2.44L19.16-0.09Q18.27 0.20 17.30 0.20L17.30 0.20Q15.61 0.20 14.79-0.61Q13.98-1.41 13.98-3.04L13.98-3.04L13.98-8.28L12.64-8.28L12.64-10.57L13.98-10.57L13.98-13.19ZM19.61-4.82L19.60-5.38Q19.60-6.96 20.21-8.20Q20.83-9.43 21.98-10.10Q23.13-10.76 24.69-10.76L24.69-10.76Q27.06-10.76 28.43-9.29Q29.79-7.82 29.79-5.29L29.79-5.29L29.79-5.18Q29.79-2.71 28.42-1.25Q27.05 0.20 24.71 0.20L24.71 0.20Q22.45 0.20 21.08-1.16Q19.72-2.51 19.61-4.82L19.61-4.82ZM22.90-5.77L22.89-5.18Q22.89-3.71 23.35-3.03Q23.81-2.34 24.71-2.34L24.71-2.34Q26.46-2.34 26.50-5.05L26.50-5.05L26.50-5.38Q26.50-8.22 24.69-8.22L24.69-8.22Q23.04-8.22 22.90-5.77L22.90-5.77ZM35.71-2.34L35.71-2.34Q36.41-2.34 36.79-2.72Q37.17-3.10 37.16-3.77L37.16-3.77L40.24-3.77Q40.24-2.03 39.00-0.92Q37.75 0.20 35.79 0.20L35.79 0.20Q33.49 0.20 32.16-1.25Q30.83-2.70 30.83-5.25L30.83-5.25L30.83-5.39Q30.83-6.99 31.42-8.22Q32.01-9.44 33.13-10.10Q34.24-10.76 35.76-10.76L35.76-10.76Q37.82-10.76 39.03-9.62Q40.24-8.48 40.24-6.52L40.24-6.52L37.16-6.52Q37.16-7.34 36.76-7.78Q36.36-8.22 35.68-8.22L35.68-8.22Q34.40-8.22 34.19-6.59L34.19-6.59Q34.12-6.07 34.12-5.17L34.12-5.17Q34.12-3.57 34.50-2.96Q34.88-2.34 35.71-2.34ZM48.18 0L45.88-3.94L44.95-3.01L44.95 0L41.66 0L41.66-15.01L44.95-15.01L44.95-7.04L45.28-7.48L47.76-10.57L51.71-10.57L48.01-6.22L51.95 0L48.18 0Z"></path></g></g></svg>